<svg width="48" height="48" viewBox="0 0 48 48" fill="none" xmlns="http://www.w3.org/2000/svg">
<circle cx="24" cy="24" r="23.5" stroke="#F4F6F8"/>
<path fill-rule="evenodd" clip-rule="evenodd" d="M15.8245 18.0263L15.6421 16.5296C15.5763 15.8951 15.0355 15.4127 14.3899 15.4127H13.7155C13.2982 15.4127 12.96 15.0785 12.96 14.6663C12.96 14.2541 13.2982 13.9199 13.7155 13.9199H14.3899C15.8105 13.9199 17.0007 14.9816 17.1453 16.3777L17.283 17.707H32.6163C32.9333 17.707 33.1714 17.9928 33.1104 18.3002L31.7709 25.049C31.4466 26.6828 29.9971 27.8613 28.3119 27.8613H20.2834C20.5149 28.8706 21.428 29.6023 22.493 29.6023H28.8165C28.8538 29.6023 28.8908 29.605 28.8722 29.6083C28.9276 29.6043 28.9833 29.6023 29.0392 29.6023C30.2908 29.6023 31.3054 30.6047 31.3054 31.8411C31.3054 33.0776 30.2908 34.0799 29.0392 34.0799C27.7876 34.0799 26.773 33.0776 26.773 31.8411C26.773 31.5835 26.8172 31.3319 26.9019 31.095H24.1267C24.2115 31.3319 24.2557 31.5835 24.2557 31.8411C24.2557 33.0776 23.2411 34.0799 21.9895 34.0799C20.7379 34.0799 19.7233 33.0776 19.7233 31.8411C19.7233 31.2958 19.9219 30.7819 20.2711 30.3814C19.4122 29.7635 18.8457 28.8104 18.7358 27.7467L18.7242 27.6344C17.4946 27.1719 16.5871 26.0477 16.4662 24.6823L16.1617 21.2429C16.1566 21.2217 16.1528 21.1998 16.1505 21.1775L15.8245 18.0263ZM21.9895 32.8361C22.5457 32.8361 22.9966 32.3906 22.9966 31.8411C22.9966 31.2916 22.5457 30.8462 21.9895 30.8462C21.4333 30.8462 20.9824 31.2916 20.9824 31.8411C20.9824 32.3906 21.4333 32.8361 21.9895 32.8361ZM29.0392 32.8361C29.5954 32.8361 30.0463 32.3906 30.0463 31.8411C30.0463 31.2916 29.5954 30.8462 29.0392 30.8462C28.483 30.8462 28.0321 31.2916 28.0321 31.8411C28.0321 32.3906 28.483 32.8361 29.0392 32.8361Z" fill="#919EAB"/>
</svg>
