<svg width="48" height="48" viewBox="0 0 48 48" fill="none" xmlns="http://www.w3.org/2000/svg">
<circle cx="24" cy="24" r="23.5" stroke="#F4F6F8"/>
<path fill-rule="evenodd" clip-rule="evenodd" d="M24 23.5199C21.6141 23.5199 19.68 21.5858 19.68 19.1999C19.68 16.814 21.6141 14.8799 24 14.8799C26.3859 14.8799 28.32 16.814 28.32 19.1999C28.32 21.5858 26.3859 23.5199 24 23.5199ZM24 24.4799C27.9764 24.4799 31.2 27.7034 31.2 31.6799V33.5999C31.2 33.865 30.9851 34.0799 30.72 34.0799H17.28C17.0149 34.0799 16.8 33.865 16.8 33.5999V31.6799C16.8 27.7034 20.0235 24.4799 24 24.4799Z" fill="#919EAB"/>
</svg>
