<svg width="96" height="16" viewBox="0 0 96 16" fill="none" xmlns="http://www.w3.org/2000/svg">
<path fill-rule="evenodd" clip-rule="evenodd" d="M8.00035 12.2246L4.33786 14.6663C4.10771 14.8197 3.80445 14.6286 3.84357 14.3548L4.46094 10.0332L1.37408 6.9463C1.18762 6.75984 1.29406 6.44054 1.5551 6.40324L5.85707 5.78868L7.70623 1.47398C7.81705 1.21538 8.18365 1.21538 8.29448 1.47398L10.1436 5.78868L14.4456 6.40324C14.7067 6.44054 14.8131 6.75984 14.6266 6.9463L11.5398 10.0332L12.1571 14.3548C12.1963 14.6286 11.893 14.8197 11.6629 14.6663L8.00035 12.2246Z" fill="#EEC200"/>
<path fill-rule="evenodd" clip-rule="evenodd" d="M28.0004 12.2246L24.3379 14.6663C24.1077 14.8197 23.8045 14.6286 23.8436 14.3548L24.4609 10.0332L21.3741 6.9463C21.1876 6.75984 21.2941 6.44054 21.5551 6.40324L25.8571 5.78868L27.7062 1.47398C27.8171 1.21538 28.1837 1.21538 28.2945 1.47398L30.1436 5.78868L34.4456 6.40324C34.7067 6.44054 34.8131 6.75984 34.6266 6.9463L31.5398 10.0332L32.1571 14.3548C32.1963 14.6286 31.893 14.8197 31.6629 14.6663L28.0004 12.2246Z" fill="#EEC200"/>
<path fill-rule="evenodd" clip-rule="evenodd" d="M48.0004 12.2246L44.3379 14.6663C44.1077 14.8197 43.8045 14.6286 43.8436 14.3548L44.4609 10.0332L41.3741 6.9463C41.1876 6.75984 41.2941 6.44054 41.5551 6.40324L45.8571 5.78868L47.7062 1.47398C47.8171 1.21538 48.1837 1.21538 48.2945 1.47398L50.1436 5.78868L54.4456 6.40324C54.7067 6.44054 54.8131 6.75984 54.6266 6.9463L51.5398 10.0332L52.1571 14.3548C52.1963 14.6286 51.893 14.8197 51.6629 14.6663L48.0004 12.2246Z" fill="#EEC200"/>
<path fill-rule="evenodd" clip-rule="evenodd" d="M68.0004 12.2246L64.3379 14.6663C64.1077 14.8197 63.8045 14.6286 63.8436 14.3548L64.4609 10.0332L61.3741 6.9463C61.1876 6.75984 61.2941 6.44054 61.5551 6.40324L65.8571 5.78868L67.7062 1.47398C67.8171 1.21538 68.1837 1.21538 68.2945 1.47398L70.1436 5.78868L74.4456 6.40324C74.7067 6.44054 74.8131 6.75984 74.6266 6.9463L71.5398 10.0332L72.1571 14.3548C72.1963 14.6286 71.893 14.8197 71.6629 14.6663L68.0004 12.2246Z" fill="#EEC200"/>
<path fill-rule="evenodd" clip-rule="evenodd" d="M88.0004 12.2246L84.3379 14.6663C84.1077 14.8197 83.8045 14.6286 83.8436 14.3548L84.4609 10.0332L81.3741 6.9463C81.1876 6.75984 81.2941 6.44054 81.5551 6.40324L85.8571 5.78868L87.7062 1.47398C87.8171 1.21538 88.1837 1.21538 88.2945 1.47398L90.1436 5.78868L94.4456 6.40324C94.7067 6.44054 94.8131 6.75984 94.6266 6.9463L91.5398 10.0332L92.1571 14.3548C92.1963 14.6286 91.893 14.8197 91.6629 14.6663L88.0004 12.2246Z" fill="#EEC200"/>
</svg>
